<svg width="50" height="50" viewBox="0 0 50 50" fill="none" xmlns="http://www.w3.org/2000/svg">
<rect x="0.5" y="0.5" width="49" height="49" rx="24.5" fill="white"/>
<rect x="0.5" y="0.5" width="49" height="49" rx="24.5" stroke="#043947"/>
<path d="M33.219 36.8656C34.9023 36.2152 36.2331 34.8844 36.8835 33.201C37.1914 32.4036 37.4069 31.4938 37.4654 30.163C37.4793 29.8513 37.4901 29.5896 37.5001 29.3271V20.4355C37.4931 20.25 37.4854 20.0568 37.4754 19.8397C37.4169 18.5089 37.2014 17.5945 36.8935 16.8017C36.5756 15.9604 36.0861 15.2069 35.4457 14.5811C34.8192 13.9446 34.061 13.4504 33.229 13.1379C32.4316 12.83 31.5218 12.6145 30.1909 12.556C28.8501 12.4921 28.4245 12.4775 25.0247 12.4775C21.6249 12.4775 21.1985 12.4921 19.8631 12.5506C18.5322 12.6091 17.6178 12.8246 16.825 13.1325C15.9837 13.4504 15.2302 13.9399 14.6037 14.5811C13.9679 15.2077 13.4737 15.9658 13.1605 16.7971C12.8526 17.5945 12.6371 18.5043 12.5786 19.8351C12.5147 21.1759 12.5001 21.6016 12.5001 25.0021C12.5001 28.4027 12.5147 28.8283 12.5732 30.1638C12.6317 31.4946 12.8472 32.4098 13.1558 33.2018C13.4737 34.0431 13.9679 34.7966 14.6037 35.4232C15.2302 36.0589 15.9884 36.5539 16.8204 36.8664C17.6178 37.1742 18.5276 37.3898 19.8584 37.4483C21.1939 37.5075 21.6195 37.5222 25.0201 37.5222C28.4206 37.5222 28.8455 37.5075 30.1817 37.4483C31.5125 37.3898 32.4262 37.1735 33.219 36.8656ZM25.0293 35.2708C21.6873 35.2708 21.2862 35.2561 19.97 35.1976C18.747 35.1438 18.0866 34.9383 17.6463 34.7674C17.1037 34.5665 16.6095 34.2486 16.2077 33.833C15.7921 33.4266 15.4734 32.9378 15.2733 32.3944C15.1024 31.9541 14.8969 31.2883 14.843 30.0706C14.7845 28.7498 14.7699 28.3534 14.7699 25.0114C14.7699 21.6693 14.7845 21.2683 14.843 19.9529C14.8969 18.7298 15.1024 18.0694 15.2733 17.6291C15.4742 17.0857 15.7921 16.5916 16.2131 16.1906C16.6187 15.7749 17.1083 15.457 17.6509 15.2561C18.0912 15.0853 18.757 14.8798 19.9747 14.8259C21.2955 14.7674 21.6919 14.7528 25.0332 14.7528C28.3744 14.7528 28.7762 14.7674 30.0924 14.8259C31.3155 14.8798 31.9759 15.0853 32.4162 15.2561C32.9588 15.457 33.453 15.7749 33.854 16.1906C34.2696 16.597 34.5883 17.0857 34.7884 17.6291C34.9593 18.0694 35.1648 18.7344 35.2187 19.9529C35.2772 21.2737 35.2918 21.6701 35.2918 25.0114C35.2918 28.3527 35.2772 28.7444 35.2187 30.0653C35.1648 31.2883 34.9593 31.9487 34.7884 32.389C34.3674 33.4804 33.5014 34.3464 32.4108 34.7666C31.9705 34.9375 31.3055 35.143 30.087 35.1969C28.7662 35.2554 28.3706 35.2708 25.0293 35.2708Z" fill="#003644"/>
<path d="M25.025 18.5675C21.4728 18.5675 18.591 21.4492 18.591 25.0014C18.591 28.5536 21.4728 31.4354 25.025 31.4354C28.5771 31.4354 31.4581 28.5536 31.4581 25.0014C31.4581 21.4492 28.5764 18.5675 25.025 18.5675ZM25.025 29.174C22.7205 29.174 20.8516 27.3051 20.8516 25.0007C20.8516 22.6962 22.7205 20.8273 25.025 20.8273C27.3294 20.8273 29.1983 22.6962 29.1983 25.0007C29.1983 27.3051 27.3294 29.174 25.025 29.174Z" fill="#003644"/>
<path d="M33.213 18.3131C33.213 17.4834 32.5402 16.8114 31.7105 16.8114C30.8808 16.8114 30.2088 17.4841 30.2088 18.3131C30.2088 19.1421 30.8815 19.8148 31.7105 19.8148C32.5395 19.8148 33.213 19.1428 33.213 18.3131Z" fill="#003644"/>
</svg>
