<svg width="50" height="50" viewBox="0 0 50 50" fill="none" xmlns="http://www.w3.org/2000/svg">
<rect x="0.5" y="0.5" width="49" height="49" rx="24.5" fill="white"/>
<rect x="0.5" y="0.5" width="49" height="49" rx="24.5" stroke="#043947"/>
<path d="M17.9104 37.4225V20.6586H12.3433V37.4225H17.9104ZM15.128 18.3702C17.0689 18.3702 18.2773 17.083 18.2773 15.4743C18.241 13.8289 17.0689 12.5775 15.1649 12.5775C13.2595 12.5775 12.0151 13.8289 12.0151 15.4741C12.0151 17.0828 13.2231 18.3701 15.0915 18.3701L15.128 18.3702ZM20.9918 37.4225H26.5585V28.0618C26.5585 27.5614 26.5948 27.0598 26.7419 26.7024C27.1441 25.7009 28.0601 24.6643 29.5984 24.6643C31.6123 24.6643 32.4184 26.2014 32.4184 28.4552V37.4225H37.9849V27.8106C37.9849 22.6617 35.2388 20.2656 31.5762 20.2656C28.5734 20.2656 27.2546 21.9455 26.5218 23.0896H26.5589V20.6592H20.9921C21.0648 22.2319 20.9918 37.4225 20.9918 37.4225Z" fill="#003644"/>
</svg>
