<svg width="21" height="20" viewBox="0 0 21 20" fill="none" xmlns="http://www.w3.org/2000/svg">
<circle cx="10.5" cy="10" r="10" fill="#003644"/>
<path d="M10.5002 15.1187C7.67634 15.1187 5.3811 12.8235 5.3811 9.99966C5.3811 7.17585 7.67634 4.88062 10.5002 4.88062C10.6954 4.88062 10.8573 5.04252 10.8573 5.23776C10.8573 5.433 10.6954 5.5949 10.5002 5.5949C8.07158 5.5949 6.09539 7.57109 6.09539 9.99966C6.09539 12.4282 8.07158 14.4044 10.5002 14.4044C12.9287 14.4044 14.9049 12.4282 14.9049 9.99966C14.9049 9.80442 15.0668 9.64252 15.2621 9.64252C15.4573 9.64252 15.6192 9.80442 15.6192 9.99966C15.6192 12.8235 13.324 15.1187 10.5002 15.1187Z" fill="white"/>
<path d="M10.9761 9.88031C10.8856 9.88031 10.7951 9.84698 10.7237 9.77555C10.5856 9.63745 10.5856 9.40888 10.7237 9.27078L14.6285 5.36602C14.7665 5.22793 14.9951 5.22793 15.1332 5.36602C15.2713 5.50412 15.2713 5.73269 15.1332 5.87078L11.2285 9.77555C11.157 9.84698 11.0665 9.88031 10.9761 9.88031Z" fill="white"/>
<path d="M15.262 7.8949C15.0668 7.8949 14.9049 7.733 14.9049 7.53776V5.5949H12.962C12.7668 5.5949 12.6049 5.433 12.6049 5.23776C12.6049 5.04252 12.7668 4.88062 12.962 4.88062H15.262C15.4572 4.88062 15.6191 5.04252 15.6191 5.23776V7.53776C15.6191 7.733 15.4572 7.8949 15.262 7.8949Z" fill="white"/>
</svg>
